<?xml version="1.0" standalone="no"?>
<!DOCTYPE svg PUBLIC "-//W3C//DTD SVG 20010904//EN"
 "http://www.w3.org/TR/2001/REC-SVG-20010904/DTD/svg10.dtd">
<svg version="1.0" xmlns="http://www.w3.org/2000/svg"
 width="512.000000pt" height="512.000000pt" viewBox="0 0 512.000000 512.000000"
 preserveAspectRatio="xMidYMid meet">
<metadata>
Created by potrace 1.14, written by Peter Selinger 2001-2017
</metadata>
<g transform="translate(0.000000,512.000000) scale(0.100000,-0.100000)"
fill="#000000" stroke="none">
<path d="M1944 3148 c-52 -68 -60 -76 -124 -153 -23 -27 -49 -59 -59 -70 -28
-36 -105 -129 -123 -150 -9 -11 -53 -64 -97 -118 l-81 -99 76 -91 c41 -51 163
-199 271 -330 l195 -239 33 54 c19 29 48 77 65 106 l31 53 -83 102 c-45 56
-85 104 -88 107 -5 5 -162 200 -183 227 -7 9 2 27 29 60 21 27 41 50 44 53 3
3 49 60 104 128 54 68 104 129 110 135 6 7 23 29 39 49 l27 37 -62 100 c-33
56 -64 101 -68 101 -4 0 -29 -28 -56 -62z"/>
<path d="M2699 3136 c-11 -39 -31 -107 -44 -151 -13 -44 -40 -136 -60 -205
-20 -69 -84 -287 -142 -485 -58 -198 -106 -364 -107 -370 0 -6 44 -10 112 -11
124 -1 124 -1 143 71 4 16 15 54 23 83 9 28 23 76 32 105 8 28 19 66 24 82 16
57 148 510 209 717 34 113 61 213 61 220 0 12 -23 14 -115 14 l-115 0 -21 -70z"/>
<path d="M3050 3117 c-30 -50 -55 -99 -55 -108 0 -13 171 -232 283 -364 9 -11
29 -36 44 -55 l27 -35 -23 -25 c-13 -14 -92 -110 -176 -215 -84 -104 -157
-192 -162 -193 -9 -4 -1 -17 79 -149 l45 -72 26 32 c40 48 54 64 134 162 41
50 131 158 200 242 69 83 138 167 153 187 l27 35 -203 248 c-270 330 -331 403
-338 403 -3 0 -31 -42 -61 -93z"/>
</g>
</svg>
